<?xml version="1.0" encoding="utf-8"?>
<!-- Generator: Adobe Illustrator 16.0.4, SVG Export Plug-In . SVG Version: 6.00 Build 0)  -->
<!DOCTYPE svg PUBLIC "-//W3C//DTD SVG 1.1//EN" "http://www.w3.org/Graphics/SVG/1.1/DTD/svg11.dtd">
<svg version="1.1" id="Layer_1" xmlns="http://www.w3.org/2000/svg" xmlns:xlink="http://www.w3.org/1999/xlink" x="0px" y="0px"
	 width="200px" height="200px" viewBox="0 0 200 200" enable-background="new 0 0 200 200" xml:space="preserve">
<g>
	<defs>
		<rect id="SVGID_1_" width="200" height="200"/>
	</defs>
	<clipPath id="SVGID_2_">
		<use xlink:href="#SVGID_1_"  overflow="visible"/>
	</clipPath>
	<path clip-path="url(#SVGID_2_)" fill="#585E48" d="M185.199,0H14.766C6.613,0,0,6.453,0,14.414V185.57
		C0,193.539,6.613,200,14.766,200h170.434c8.16,0,14.809-6.461,14.809-14.43V14.414C200.008,6.453,193.359,0,185.199,0"/>
</g>
<g>
	<path fill="#FFFFFF" d="M16.785,46.996C15.69,49.086,15,51.441,15,53.972v92.078c0,2.509,0.676,4.835,1.763,6.913l52.841-53.116
		L16.785,46.996z M91.66,110.35c4.69,4.676,12.328,4.676,17.021-0.014l13.007-13.103c0.014-0.008,0-0.014,0.014-0.021
		c0.014-0.015,0.021,0,0.035-0.015l55.863-56.133c-2.26-1.352-4.852-2.167-7.652-2.167H30.066c-2.818,0-5.414,0.815-7.654,2.153
		l55.854,55.882L91.66,110.35z M114.476,116.111c-3.937,3.931-9.132,5.902-14.314,5.902c-5.171,0-10.331-1.972-14.279-5.888
		l-10.495-10.509l-53.028,53.296c2.265,1.359,4.878,2.188,7.707,2.188h139.882c2.814,0,5.422-0.829,7.681-2.188l-53.021-53.018
		L114.476,116.111z M183.217,47l-52.831,53.112l52.858,52.845c1.072-2.071,1.756-4.397,1.756-6.906V53.972
		C185,51.441,184.316,49.086,183.217,47"/>
</g>
</svg>
