<?xml version="1.0" encoding="utf-8"?>
<!-- Generator: Adobe Illustrator 16.0.4, SVG Export Plug-In . SVG Version: 6.00 Build 0)  -->
<!DOCTYPE svg PUBLIC "-//W3C//DTD SVG 1.1//EN" "http://www.w3.org/Graphics/SVG/1.1/DTD/svg11.dtd">
<svg version="1.1" id="Layer_1" xmlns="http://www.w3.org/2000/svg" xmlns:xlink="http://www.w3.org/1999/xlink" x="0px" y="0px"
	 width="200px" height="200px" viewBox="0 0 200 200" enable-background="new 0 0 200 200" xml:space="preserve">
<g>
	<g>
		<path fill="#585E48" d="M185.19,0H14.757C6.604,0-0.009,6.453-0.009,14.414V185.57c0,7.969,6.613,14.43,14.766,14.43h170.435
			c8.159,0,14.809-6.461,14.809-14.43V14.414C199.999,6.453,193.351,0,185.19,0"/>
	</g>
</g>
<g>
	<path fill="#FFFFFF" d="M100,15c-46.743,0-85,38.257-85,85c0,46.777,38.257,85,85,85c46.777,0,85-38.223,85-85
		C185,53.257,146.777,15,100,15z M100,168.027c-37.415,0-67.994-30.645-67.994-68.027c0-37.415,30.579-67.993,67.994-67.993
		c37.382,0,68.027,30.579,68.027,67.993C168.027,137.383,137.383,168.027,100,168.027z"/>
</g>
<g>
	<path fill="#FFFFFF" d="M135.698,135.698l-44.185-27.212V57.5h12.764v44.185l38.223,22.935L135.698,135.698z"/>
</g>
</svg>
