<?xml version="1.0" encoding="utf-8"?>
<!-- Generator: Adobe Illustrator 16.0.4, SVG Export Plug-In . SVG Version: 6.00 Build 0)  -->
<!DOCTYPE svg PUBLIC "-//W3C//DTD SVG 1.1//EN" "http://www.w3.org/Graphics/SVG/1.1/DTD/svg11.dtd">
<svg version="1.1" id="Layer_1" xmlns="http://www.w3.org/2000/svg" xmlns:xlink="http://www.w3.org/1999/xlink" x="0px" y="0px"
	 width="200px" height="200px" viewBox="0 0 200 200" enable-background="new 0 0 200 200" xml:space="preserve">
<g>
	<defs>
		<rect id="SVGID_1_" width="200" height="200"/>
	</defs>
	<clipPath id="SVGID_2_">
		<use xlink:href="#SVGID_1_"  overflow="visible"/>
	</clipPath>
	<path clip-path="url(#SVGID_2_)" fill="#4D6DA7" d="M188.968,200c6.094,0,11.032-4.946,11.032-11.038V11.04
		C200,4.946,195.062,0,188.968,0H11.035C4.938,0,0.004,4.946,0.004,11.04v177.922c0,6.092,4.934,11.038,11.031,11.038H188.968z"/>
	<path clip-path="url(#SVGID_2_)" fill="#FFFFFF" d="M137.999,200v-77.444h26l3.891-30.188h-29.891V73.094
		c0-8.741,2.423-14.695,14.954-14.695l15.984-0.008V31.398c-2.766-0.367-12.25-1.188-23.298-1.188
		c-23.03,0-38.812,14.062-38.812,39.891v22.266H80.766v30.188h26.062V200H137.999z"/>
</g>
</svg>
