<?xml version="1.0" encoding="utf-8"?>
<!-- Generator: Adobe Illustrator 16.0.4, SVG Export Plug-In . SVG Version: 6.00 Build 0)  -->
<!DOCTYPE svg PUBLIC "-//W3C//DTD SVG 1.1//EN" "http://www.w3.org/Graphics/SVG/1.1/DTD/svg11.dtd">
<svg version="1.1" id="Layer_1" xmlns="http://www.w3.org/2000/svg" xmlns:xlink="http://www.w3.org/1999/xlink" x="0px" y="0px"
	 width="200px" height="200px" viewBox="0 0 200 200" enable-background="new 0 0 200 200" xml:space="preserve">
<g>
	<defs>
		<path id="SVGID_1_" d="M99.969,0.012c55.21,0,99.97,44.759,99.97,99.969c0,55.216-44.76,99.973-99.97,99.973
			c-55.213,0-99.968-44.757-99.968-99.973C0.001,44.771,44.756,0.012,99.969,0.012L99.969,0.012z"/>
	</defs>
	<clipPath id="SVGID_2_">
		<use xlink:href="#SVGID_1_"  overflow="visible"/>
	</clipPath>
	<g clip-path="url(#SVGID_2_)">
		
			<image overflow="visible" width="68" height="72" xlink:href="5C81BB411D9F0D92.jpg"  transform="matrix(3.124 0 0 3.124 0 0.0117)">
		</image>
	</g>
</g>
<g>
	<defs>
		<path id="SVGID_3_" d="M123.201,223.574l-87.472-87.473c0,0-23.064-33.162,4.887-61.114c28.077-28.082,61.112-4.884,61.112-4.884
			l32.26,32.262c4.215-2.025,9.111-4.902,12.842-8.627c7.285-7.292,9.104-18.7,9.104-18.7l56.457,56.453L123.201,223.574
			L123.201,223.574z"/>
	</defs>
	<defs>
		<path id="SVGID_4_" d="M99.969,0.012c55.21,0,99.97,44.759,99.97,99.969c0,55.216-44.76,99.973-99.97,99.973
			c-55.213,0-99.968-44.757-99.968-99.973C0.001,44.771,44.756,0.012,99.969,0.012L99.969,0.012z"/>
	</defs>
	<clipPath id="SVGID_5_">
		<use xlink:href="#SVGID_3_"  overflow="visible"/>
	</clipPath>
	<clipPath id="SVGID_6_" clip-path="url(#SVGID_5_)">
		<use xlink:href="#SVGID_4_"  overflow="visible"/>
	</clipPath>
	<g clip-path="url(#SVGID_6_)">
		
			<image overflow="visible" width="68" height="72" xlink:href="5C81BB411D9F0D96.jpg"  transform="matrix(3.124 0 0 3.124 0 0.0117)">
		</image>
	</g>
</g>
<g>
	<defs>
		<path id="SVGID_7_" d="M68.727,93.735h45.777c0.637,3.036,1.086,6.144,1.086,9.373c0,25.876-20.979,46.859-46.863,46.859
			c-25.876,0-46.86-20.983-46.86-46.859c0-25.883,20.984-46.861,46.86-46.861c12.947,0,24.593,5.306,33.066,13.794L88.548,83.285
			c-5.079-5.096-12.054-8.298-19.821-8.298c-15.525,0-28.113,12.589-28.113,28.12c0,15.524,12.588,28.111,28.113,28.111
			c12.227,0,22.534-7.843,26.402-18.741H68.727V93.735L68.727,93.735z M156.203,103.107v15.618h-12.498v-15.618h-15.623V90.611
			h15.623V74.987h12.498v15.624h15.617v12.497H156.203L156.203,103.107z"/>
	</defs>
	<clipPath id="SVGID_8_">
		<use xlink:href="#SVGID_7_"  overflow="visible"/>
	</clipPath>
	<g clip-path="url(#SVGID_8_)">
		
			<image overflow="visible" width="68" height="72" xlink:href="5C81BB411D9F0D91.jpg"  transform="matrix(3.124 0 0 3.124 0 0.0117)">
		</image>
	</g>
</g>
</svg>
