<?xml version="1.0" encoding="utf-8"?>
<!-- Generator: Adobe Illustrator 16.0.4, SVG Export Plug-In . SVG Version: 6.00 Build 0)  -->
<!DOCTYPE svg PUBLIC "-//W3C//DTD SVG 1.1//EN" "http://www.w3.org/Graphics/SVG/1.1/DTD/svg11.dtd">
<svg version="1.1" id="Layer_1" xmlns="http://www.w3.org/2000/svg" xmlns:xlink="http://www.w3.org/1999/xlink" x="0px" y="0px"
	 width="200px" height="200px" viewBox="0 0 200 200" enable-background="new 0 0 200 200" xml:space="preserve">
<g>
	<g>
		<g>
			<path fill="#585E48" d="M185.199,0H14.766C6.613,0,0,6.453,0,14.414V185.57C0,193.539,6.613,200,14.766,200H185.2
				c8.159,0,14.809-6.461,14.809-14.43V14.414C200.008,6.453,193.359,0,185.199,0"/>
		</g>
	</g>
</g>
<g>
	<path fill="#FFFFFF" d="M135.84,63.881c-2.893-2.9-7.24-2.9-10.132,0l-60.829,60.828c-2.901,2.891-2.901,7.238,0,10.152
		c2.891,2.894,7.239,2.894,10.132,0l60.829-60.839C138.752,71.119,138.752,66.773,135.84,63.881z"/>
	<path fill="#FFFFFF" d="M75.011,175.409l25.345-25.349c10.162-10.131,13.048-25.351,7.982-38.367l-12.316,12.304
		c0,5.777-1.458,11.586-6.524,16.651l-25.35,25.351c-8.687,8.693-22.447,8.693-30.415,0c-8.691-8.701-8.691-22.465,0-30.416
		l25.348-25.352c4.343-4.346,10.859-6.524,16.655-6.524l12.316-12.302c-13.042-5.079-28.251-2.905-38.386,7.954l-25.346,25.35
		c-13.76,13.765-13.76,36.937,0,50.7C38.08,189.889,61.259,189.889,75.011,175.409z"/>
	<path fill="#FFFFFF" d="M110.519,58.808l25.321-25.346c8.692-8.688,22.457-8.688,30.426,0c7.97,8.691,8.685,22.451,0,30.419
		l-25.342,25.35c-4.344,4.336-10.869,6.508-16.676,6.508l-12.305,12.317c13.052,5.065,28.241,2.175,38.399-7.968l25.344-25.35
		c13.753-13.758,13.753-36.934,0-50.691c-13.762-13.759-36.936-13.759-50.691,0l-24.638,24.624
		c-10.127,10.136-13.031,25.351-7.969,38.384l12.315-12.316C103.991,68.944,106.165,63.152,110.519,58.808z"/>
</g>
</svg>
