<?xml version="1.0" encoding="utf-8"?>
<!-- Generator: Adobe Illustrator 16.0.4, SVG Export Plug-In . SVG Version: 6.00 Build 0)  -->
<!DOCTYPE svg PUBLIC "-//W3C//DTD SVG 1.1//EN" "http://www.w3.org/Graphics/SVG/1.1/DTD/svg11.dtd">
<svg version="1.1" id="Layer_1" xmlns="http://www.w3.org/2000/svg" xmlns:xlink="http://www.w3.org/1999/xlink" x="0px" y="0px"
	 width="200px" height="200px" viewBox="0 0 200 200" enable-background="new 0 0 200 200" xml:space="preserve">
<g>
	<g>
		<defs>
			<rect id="SVGID_1_" width="200" height="200"/>
		</defs>
		<clipPath id="SVGID_2_">
			<use xlink:href="#SVGID_1_"  overflow="visible"/>
		</clipPath>
		<path clip-path="url(#SVGID_2_)" fill="#585E48" d="M185.199,0H14.766C6.613,0,0,6.453,0,14.414V185.57
			C0,193.539,6.613,200,14.766,200H185.2c8.159,0,14.809-6.461,14.809-14.43V14.414C200.008,6.453,193.359,0,185.199,0"/>
	</g>
</g>
<g>
	<path fill="#FFFFFF" d="M148.188,108.592c6.896-9.676,10.968-21.505,10.968-34.292c0-32.671-26.485-59.156-59.156-59.156
		S40.844,41.629,40.844,74.3c0,12.783,4.069,24.609,10.963,34.284L100,186.273L148.188,108.592z M100,44.722
		c16.336,0,29.578,13.242,29.578,29.578c0,16.335-13.242,29.579-29.578,29.579c-16.335,0-29.578-13.244-29.578-29.579
		C70.422,57.964,83.665,44.722,100,44.722z"/>
</g>
</svg>
