<?xml version="1.0" encoding="utf-8"?>
<!-- Generator: Adobe Illustrator 16.0.4, SVG Export Plug-In . SVG Version: 6.00 Build 0)  -->
<!DOCTYPE svg PUBLIC "-//W3C//DTD SVG 1.1//EN" "http://www.w3.org/Graphics/SVG/1.1/DTD/svg11.dtd">
<svg version="1.1" id="Layer_1" xmlns="http://www.w3.org/2000/svg" xmlns:xlink="http://www.w3.org/1999/xlink" x="0px" y="0px"
	 width="200px" height="200px" viewBox="0 0 200 200" enable-background="new 0 0 200 200" xml:space="preserve">
<g>
	<path fill="#A5A5A5" d="M109.046,98.269c18.562-23.911,16.895-58.441-5.035-80.422c-23.795-23.792-62.37-23.792-86.164,0
		c-23.794,23.792-23.794,62.366,0,86.164c21.969,21.966,56.528,23.634,80.431,5.038l9.315,9.323l10.778-10.772L109.046,98.269z
		 M23.23,98.627c-20.819-20.819-20.819-54.578,0-75.397s54.575-20.819,75.394,0c20.823,20.819,20.823,54.578,0,75.397
		C77.805,119.446,44.049,119.446,23.23,98.627z"/>
	<path fill="#EEEEEE" d="M98.624,23.23c-20.819-20.819-54.575-20.819-75.394,0s-20.819,54.578,0,75.397
		c20.819,20.819,54.575,20.819,75.394,0C119.446,77.808,119.446,44.049,98.624,23.23z M36.691,90.545
		c-1.486,1.489-3.9,1.489-5.386,0c-16.33-16.369-16.33-42.871,0-59.24c1.492-1.477,3.906-1.465,5.386,0.024
		c1.477,1.484,1.477,3.882,0,5.365c-13.361,13.391-13.361,35.077,0,48.462C38.181,86.646,38.181,89.056,36.691,90.545z"/>
	<path fill="#FFFFFF" d="M36.691,36.694c1.477-1.483,1.477-3.881,0-5.365c-1.48-1.489-3.894-1.501-5.386-0.024
		c-16.33,16.37-16.33,42.871,0,59.24c1.486,1.489,3.9,1.489,5.386,0c1.489-1.489,1.489-3.899,0-5.389
		C23.331,71.771,23.331,50.085,36.691,36.694z"/>
	<path fill="#585E48" d="M195.556,174.018l-68.213-68.213c-1.983-1.978-5.188-1.978-7.177,0l-14.361,14.361
		c-1.975,1.989-1.975,5.193,0,7.184l68.213,68.213c5.95,5.914,15.582,5.914,21.538,0l-0.176-0.176l0.176,0.169
		C201.477,189.594,201.477,179.98,195.556,174.018z"/>
</g>
</svg>
