<?xml version="1.0" encoding="utf-8"?>
<!-- Generator: Adobe Illustrator 16.0.4, SVG Export Plug-In . SVG Version: 6.00 Build 0)  -->
<!DOCTYPE svg PUBLIC "-//W3C//DTD SVG 1.1//EN" "http://www.w3.org/Graphics/SVG/1.1/DTD/svg11.dtd">
<svg version="1.1" id="Layer_1" xmlns="http://www.w3.org/2000/svg" xmlns:xlink="http://www.w3.org/1999/xlink" x="0px" y="0px"
	 width="200px" height="200px" viewBox="0 0 200 200" enable-background="new 0 0 200 200" xml:space="preserve">
<linearGradient id="SVGID_1_" gradientUnits="userSpaceOnUse" x1="100.0005" y1="200" x2="100.0005" y2="4.882812e-04">
	<stop  offset="0" style="stop-color:#00888E"/>
	<stop  offset="1" style="stop-color:#006568"/>
</linearGradient>
<path fill="url(#SVGID_1_)" d="M200,192.508c0,4.137-3.354,7.492-7.491,7.492H7.492C3.354,200,0,196.645,0,192.508V7.492
	C0,3.354,3.354,0,7.492,0h185.017C196.646,0,200,3.354,200,7.492V192.508z"/>
<path fill="#FFFFFF" d="M54.089,57.603c-1.201,0-2.211,0.422-2.721,1.247c-0.525,0.852-0.446,1.949,0.115,3.06L64.972,85.26
	c0.023,0.044,0.023,0.072,0,0.113l-21.196,37.406c-0.554,1.102-0.526,2.205,0,3.061c0.508,0.82,1.405,1.358,2.608,1.358h19.95
	c2.981,0,4.421-2.012,5.44-3.853c0,0,20.73-36.662,21.537-38.085c-0.082-0.131-13.715-23.917-13.715-23.917
	c-0.995-1.768-2.494-3.741-5.553-3.741L54.089,57.603L54.089,57.603z"/>
<path fill="#FFFFFF" d="M137.901,30.285c-2.98,0-4.271,1.877-5.342,3.8c0,0-42.978,76.216-44.395,78.718
	c0.072,0.136,28.347,52.005,28.347,52.005c0.99,1.77,2.52,3.801,5.576,3.801h19.925c1.203,0,2.142-0.453,2.646-1.275
	c0.535-0.852,0.52-1.976-0.038-3.084l-28.126-51.384c-0.025-0.04-0.025-0.09,0-0.131l44.169-78.099
	c0.556-1.103,0.568-2.227,0.044-3.079c-0.51-0.821-1.453-1.274-2.653-1.274h-20.155v0.001L137.901,30.285L137.901,30.285z"/>
</svg>
